<?xml version="1.0" encoding="UTF-8" standalone="no"?>
<!-- Created with Inkscape (http://www.inkscape.org/) -->

<svg
   width="94.673149mm"
   height="40.006718mm"
   viewBox="0 0 94.673149 40.006718"
   version="1.1"
   id="svg5"
   inkscape:version="1.1.2 (0a00cf5339, 2022-02-04)"
   sodipodi:docname="logo.svg"
   xmlns:inkscape="http://www.inkscape.org/namespaces/inkscape"
   xmlns:sodipodi="http://sodipodi.sourceforge.net/DTD/sodipodi-0.dtd"
   xmlns="http://www.w3.org/2000/svg"
   xmlns:svg="http://www.w3.org/2000/svg">
  <sodipodi:namedview
     id="namedview7"
     pagecolor="#ffffff"
     bordercolor="#666666"
     borderopacity="1.0"
     inkscape:pageshadow="2"
     inkscape:pageopacity="0.0"
     inkscape:pagecheckerboard="0"
     inkscape:document-units="mm"
     showgrid="false"
     fit-margin-top="0"
     fit-margin-left="0"
     fit-margin-right="0"
     fit-margin-bottom="0"
     inkscape:zoom="1.2473026"
     inkscape:cx="44.095152"
     inkscape:cy="-70.552243"
     inkscape:window-width="1920"
     inkscape:window-height="1011"
     inkscape:window-x="0"
     inkscape:window-y="0"
     inkscape:window-maximized="1"
     inkscape:current-layer="layer1" />
  <defs
     id="defs2">
    <clipPath
       clipPathUnits="userSpaceOnUse"
       id="clipPath16095">
      <text
         xml:space="preserve"
         style="font-style:normal;font-weight:normal;font-size:40.554px;line-height:1.25;font-family:sans-serif;fill:#000000;fill-opacity:1;stroke:none;stroke-width:1.01385"
         x="33.492744"
         y="116.76041"
         id="text16099"><tspan
           sodipodi:role="line"
           id="tspan16097"
           style="font-style:normal;font-variant:normal;font-weight:normal;font-stretch:normal;font-family:Pacifico;-inkscape-font-specification:Pacifico;stroke-width:1.01385"
           x="33.492744"
           y="116.76041">Lumi</tspan></text>
    </clipPath>
  </defs>
  <g
     inkscape:label="yeah yeah yeahhhhh cool yeahhhh yeahyeahhh yeahhhhhhhhh yeahyeahyeahyEEEAHHHHHH"
     inkscape:groupmode="layer"
     id="layer1"
     transform="translate(-495.60891,-96.969191)">
    <path
       id="path20849"
       style="font-size:40.554px;line-height:1.25;font-family:Pacifico;-inkscape-font-specification:Pacifico;fill:#ffffff;stroke:#000000;stroke-width:5.414;stroke-linecap:round;stroke-linejoin:round;stroke-miterlimit:4;stroke-dasharray:none;stroke-opacity:1;paint-order:stroke markers fill"
       d="m 520.70162,99.676191 c -1.78438,0 -3.47434,0.28387 -5.06946,0.851619 -1.59513,0.54072 -3.01448,1.35149 -4.25814,2.43293 -1.43291,1.24366 -2.5546,2.74419 -3.36568,4.50153 -0.81108,1.75734 -1.29765,3.98798 -1.45986,6.69159 l -0.73019,11.80134 h -0.5271 c -2.10881,0 -3.79877,0.44623 -5.06946,1.33842 -1.27069,0.86516 -1.90582,1.95979 -1.90582,3.28456 0,1.08144 0.4595,1.9739 1.37872,2.67684 0.89219,0.67589 2.09558,1.01389 3.6096,1.01389 2.75767,0 4.82544,-1.25752 6.20427,-3.77187 1.43291,0.43258 2.92018,0.98705 4.46123,1.66295 1.70327,0.70294 3.14968,1.22983 4.33927,1.5813 1.18958,0.35147 2.48743,0.52762 3.8933,0.52762 2.00067,0 3.70389,-0.36505 5.10977,-1.09503 0.7997,-0.40739 1.61158,-0.98383 2.43654,-1.72806 0.16381,0.4138 0.3649,0.80056 0.60461,1.16014 0.78405,1.10847 1.78475,1.66295 3.00137,1.66295 1.05441,0 2.0408,-0.48709 2.96003,-1.46038 0.91922,-1.00033 1.60899,-2.41969 2.06861,-4.25814 0,1.81141 0.29714,3.2175 0.89193,4.21783 0.62183,1.00034 1.58168,1.50069 2.87941,1.50069 1.70327,0 3.21759,-0.46002 4.54236,-1.37925 0.56877,-0.38676 1.12045,-0.81938 1.65571,-1.29708 0.0814,0.40089 0.17769,0.75307 0.29042,1.05368 0.43258,1.08145 1.16268,1.62265 2.19005,1.62265 0.83812,0 1.44671,-0.21649 1.82521,-0.64906 0.40554,-0.45961 0.7568,-1.32502 1.0542,-2.59571 0.35147,-1.45994 0.81097,-2.94669 1.37873,-4.46071 0.59479,-1.51401 1.20338,-2.75774 1.82521,-3.73103 0.62183,-0.9733 1.13545,-1.45986 1.54099,-1.45986 0.2974,0 0.44597,0.21648 0.44597,0.64905 0,0.54072 -0.10824,1.6762 -0.32453,3.40651 -0.27036,1.9466 -0.40566,3.43335 -0.40566,4.46071 0,1.21662 0.21648,2.25765 0.64906,3.12281 0.45961,0.83811 1.13559,1.25729 2.02778,1.25729 0.86515,0 1.48702,-0.21649 1.86552,-0.64906 0.40554,-0.43258 0.7568,-1.29798 1.0542,-2.59571 0.40554,-1.64919 0.93295,-3.21712 1.58182,-4.7041 0.64886,-1.48698 1.29778,-2.67658 1.94665,-3.56878 0.64886,-0.91922 1.1487,-1.37872 1.50016,-1.37872 0.2974,0 0.44649,0.21648 0.44649,0.64905 0,0.64887 -0.17615,1.82468 -0.52762,3.52795 -0.3785,1.94659 -0.56741,3.29856 -0.56741,4.05557 0,1.51401 0.35127,2.67656 1.0542,3.48764 0.70294,0.78405 1.74397,1.17616 3.12281,1.17616 1.70327,0 3.21707,-0.46002 4.54184,-1.37925 0.236,-0.16048 0.46895,-0.32926 0.69918,-0.50539 0.039,0.60227 0.19794,1.05473 0.47698,1.35702 0.32443,0.35147 0.91923,0.52762 1.78439,0.52762 0.97329,0 1.6896,-0.17615 2.14922,-0.52762 0.45962,-0.35147 0.71643,-0.95954 0.77049,-1.8247 0.24332,-3.92022 0.97343,-8.77309 2.19005,-14.5588 0.0541,-0.3785 0.0811,-0.63531 0.0811,-0.77049 0,-0.94626 -0.58102,-1.41955 -1.74356,-1.41955 -1.10848,0 -1.91977,0.17563 -2.43345,0.52709 -0.48664,0.32444 -0.8379,0.90597 -1.0542,1.74409 -0.71924,2.91585 -1.29095,6.06368 -1.71669,9.44076 -0.74318,0.83891 -1.37633,1.4937 -1.89291,1.95492 -0.72997,0.64887 -1.3651,0.97307 -1.90582,0.97307 -0.78405,0 -1.17616,-0.54068 -1.17616,-1.62212 0,-0.75701 0.25681,-2.31167 0.7705,-4.6638 0.59479,-2.75768 0.89193,-4.6636 0.89193,-5.718 0,-1.75734 -0.87867,-2.63601 -2.63601,-2.63601 -1.43291,0 -2.97378,0.75716 -4.62298,2.27118 -1.64919,1.51401 -3.14973,3.93355 -4.50153,7.25898 0.0811,-0.48665 0.22968,-1.21675 0.44597,-2.19004 0.51368,-2.27103 0.77101,-3.83896 0.77101,-4.70411 0,-0.89219 -0.20321,-1.55439 -0.60875,-1.98696 -0.3785,-0.43257 -1.0407,-0.64905 -1.98696,-0.64905 -3.52613,0.47065 -6.74247,3.51215 -8.35401,6.73189 l 0.64854,-2.83859 c 0.40554,-1.51401 0.60875,-2.48766 0.60875,-2.92024 0,-0.3785 -0.10824,-0.63531 -0.32453,-0.77049 -0.21629,-0.13518 -0.59513,-0.20257 -1.13584,-0.20257 -1.00034,0 -1.78405,0.18942 -2.3518,0.56792 -0.54072,0.35146 -0.93283,0.91921 -1.17616,1.70326 -0.93004,2.94093 -1.42706,6.03375 -1.49241,9.2785 -0.80632,0.91849 -1.48635,1.62637 -2.03605,2.11718 -0.72997,0.64887 -1.36511,0.97307 -1.90583,0.97307 -0.35147,0 -0.63534,-0.1353 -0.85163,-0.40566 -0.21629,-0.29739 -0.32452,-0.70278 -0.32452,-1.21646 0,-0.81108 0.37883,-2.94676 1.13584,-6.40737 0.6759,-3.02803 1.01338,-4.88035 1.01338,-5.55624 0,-0.40555 -0.12151,-0.67563 -0.36484,-0.81081 -0.24332,-0.16221 -0.67576,-0.24339 -1.29759,-0.24339 -0.89219,0 -1.56818,0.17563 -2.02779,0.52709 -0.43257,0.35147 -0.75678,0.933 -0.97306,1.74409 -0.64887,2.4062 -1.32485,4.43363 -2.02779,6.08283 -0.6759,1.64919 -1.32482,2.87965 -1.94665,3.69073 -0.59479,0.81108 -1.09514,1.21646 -1.50068,1.21646 -0.2974,0 -0.51336,-0.10824 -0.64854,-0.32453 -0.13518,-0.24332 -0.20309,-0.6487 -0.20309,-1.21646 0,-0.94626 0.2706,-2.83891 0.81132,-5.67769 0.16222,-0.81108 0.37818,-1.71681 0.64854,-2.71714 0.2974,-1.24366 0.44648,-1.97377 0.44648,-2.19005 0,-0.37851 -0.12202,-0.66238 -0.36535,-0.85163 -0.21628,-0.18925 -0.62167,-0.2837 -1.21646,-0.2837 -1.0544,0 -1.82484,0.17563 -2.31149,0.52709 -0.48665,0.35147 -0.86497,0.933 -1.13533,1.74409 -0.62183,1.89251 -1.06806,3.6902 -1.33842,5.39347 -0.19055,1.1814 -0.31272,2.45203 -0.36897,3.80803 -0.6987,0.63939 -1.4268,1.14334 -2.18591,1.50482 -1.10848,0.51368 -2.44666,0.77049 -4.01474,0.77049 -0.62183,0 -1.33866,-0.0812 -2.14974,-0.24339 -0.81108,-0.16222 -1.97363,-0.43282 -3.48765,-0.81132 -2.59545,-0.64887 -4.75819,-1.12164 -6.48849,-1.41904 0.21629,-0.94626 0.39192,-2.06847 0.5271,-3.3662 l 0.93276,-9.20564 c 0.35147,-3.32543 1.17602,-5.75876 2.47375,-7.29981 1.29773,-1.56809 3.13626,-2.35231 5.51543,-2.35231 1.3518,0 2.3525,0.33799 3.00136,1.01389 0.67591,0.64886 1.01338,1.54133 1.01338,2.67684 0,0.59479 -0.0807,1.27026 -0.24288,2.02726 -0.10814,0.64887 -0.16226,1.0951 -0.16226,1.33842 0,0.67591 0.21596,1.20331 0.64853,1.58182 0.43258,0.35147 1.02738,0.5271 1.78439,0.5271 1.05441,0 1.87896,-0.50035 2.47375,-1.50068 0.5948,-1.02737 0.89246,-2.36555 0.89246,-4.01475 0,-2.43324 -0.78423,-4.40655 -2.35231,-5.92057 -1.56809,-1.51401 -3.81201,-2.271169 -6.73189,-2.271169 z m 63.50775,6.488489 c -1.10847,0 -2.04127,0.32472 -2.79828,0.97358 -0.72997,0.62183 -1.09502,1.40554 -1.09502,2.3518 0,0.94626 0.28387,1.68963 0.85162,2.23035 0.56776,0.51368 1.41937,0.77101 2.55489,0.77101 1.16255,0 2.09534,-0.31093 2.79827,-0.93276 0.70294,-0.64886 1.05421,-1.51426 1.05421,-2.5957 0,-0.89219 -0.31094,-1.58145 -0.93276,-2.06809 -0.62183,-0.48665 -1.4326,-0.73019 -2.43293,-0.73019 z"
       sodipodi:nodetypes="sccsccscscsccsscccscccscccscccssscscsccscsscscsccsssccssccccsscsssccsccccsssccccscscscsccccscsccscssccccsssccccscscscscsssscscscsss" />
  </g>
</svg>
